<svg width="64" height="64" viewBox="0 0 64 64" fill="none" xmlns="http://www.w3.org/2000/svg">
<path d="M42.6667 10.6667H48C49.4145 10.6667 50.771 11.2286 51.7712 12.2288C52.7714 13.229 53.3333 14.5855 53.3333 16V53.3333C53.3333 54.7478 52.7714 56.1044 51.7712 57.1046C50.771 58.1048 49.4145 58.6667 48 58.6667H16C14.5855 58.6667 13.229 58.1048 12.2288 57.1046C11.2286 56.1044 10.6667 54.7478 10.6667 53.3333V16C10.6667 14.5855 11.2286 13.229 12.2288 12.2288C13.229 11.2286 14.5855 10.6667 16 10.6667H21.3333" stroke="black" stroke-width="2" stroke-linecap="round" stroke-linejoin="round"/>
<path d="M40 5.33333H24C22.5273 5.33333 21.3333 6.52724 21.3333 7.99999V13.3333C21.3333 14.8061 22.5273 16 24 16H40C41.4728 16 42.6667 14.8061 42.6667 13.3333V7.99999C42.6667 6.52724 41.4728 5.33333 40 5.33333Z" stroke="black" stroke-width="2" stroke-linecap="round" stroke-linejoin="round"/>
</svg>
