<svg width="64" height="64" viewBox="0 0 64 64" fill="none" xmlns="http://www.w3.org/2000/svg">
<path d="M24 45.3333H16C14.249 45.3333 12.5152 44.9885 10.8975 44.3184C9.27984 43.6483 7.80998 42.6662 6.57187 41.4281C4.07138 38.9276 2.66663 35.5362 2.66663 32C2.66663 28.4638 4.07138 25.0724 6.57187 22.5719C9.07235 20.0714 12.4637 18.6667 16 18.6667H24M40 18.6667H48C49.7509 18.6667 51.4847 19.0115 53.1024 19.6816C54.7201 20.3517 56.1899 21.3338 57.428 22.5719C58.6662 23.81 59.6483 25.2799 60.3184 26.8976C60.9884 28.5152 61.3333 30.249 61.3333 32C61.3333 33.751 60.9884 35.4848 60.3184 37.1024C59.6483 38.7201 58.6662 40.19 57.428 41.4281C56.1899 42.6662 54.7201 43.6483 53.1024 44.3184C51.4847 44.9885 49.7509 45.3333 48 45.3333H40V18.6667Z" stroke="black" stroke-width="2" stroke-linecap="round" stroke-linejoin="round"/>
<path d="M21.3334 32H42.6667" stroke="black" stroke-width="2" stroke-linecap="round" stroke-linejoin="round"/>
</svg>
