<svg width="256" height="256" viewBox="0 0 256 256" fill="none" xmlns="http://www.w3.org/2000/svg">
<rect x="4" y="4" width="248" height="248" rx="28" fill="#D91212"/>
<path d="M32.192 127.744C32.192 117.952 34.4 109.168 38.816 101.392C43.232 93.52 49.232 87.376 56.816 82.96C64.496 78.544 72.992 76.336 82.304 76.336C93.248 76.336 102.8 78.976 110.96 84.256C119.12 89.536 125.072 97.024 128.816 106.72H113.12C110.336 100.672 106.304 96.016 101.024 92.752C95.84 89.488 89.6 87.856 82.304 87.856C75.296 87.856 69.008 89.488 63.44 92.752C57.872 96.016 53.504 100.672 50.336 106.72C47.168 112.672 45.584 119.68 45.584 127.744C45.584 135.712 47.168 142.72 50.336 148.768C53.504 154.72 57.872 159.328 63.44 162.592C69.008 165.856 75.296 167.488 82.304 167.488C89.6 167.488 95.84 165.904 101.024 162.736C106.304 159.472 110.336 154.816 113.12 148.768H128.816C125.072 158.368 119.12 165.808 110.96 171.088C102.8 176.272 93.248 178.864 82.304 178.864C72.992 178.864 64.496 176.704 56.816 172.384C49.232 167.968 43.232 161.872 38.816 154.096C34.4 146.32 32.192 137.536 32.192 127.744ZM218.306 99.088V178H205.202V166.336C202.706 170.368 199.202 173.536 194.69 175.84C190.274 178.048 185.378 179.152 180.002 179.152C173.858 179.152 168.338 177.904 163.442 175.408C158.546 172.816 154.658 168.976 151.778 163.888C148.994 158.8 147.602 152.608 147.602 145.312V99.088H160.562V143.584C160.562 151.36 162.53 157.36 166.466 161.584C170.402 165.712 175.778 167.776 182.594 167.776C189.602 167.776 195.122 165.616 199.154 161.296C203.186 156.976 205.202 150.688 205.202 142.432V99.088H218.306Z" fill="white"/>
<rect x="4" y="4" width="248" height="248" rx="28" stroke="white" stroke-width="16"/>
</svg>
