<svg width="64" height="64" viewBox="0 0 64 64" fill="none" xmlns="http://www.w3.org/2000/svg">
<path d="M32 40C36.4183 40 40 36.4183 40 32C40 27.5817 36.4183 24 32 24C27.5817 24 24 27.5817 24 32C24 36.4183 27.5817 40 32 40Z" stroke="black" stroke-width="2" stroke-linecap="round" stroke-linejoin="round"/>
<path d="M51.7333 40C51.3784 40.8043 51.2725 41.6965 51.4293 42.5616C51.5862 43.4266 51.9986 44.2249 52.6133 44.8533L52.7734 45.0133C53.2692 45.5087 53.6626 46.0969 53.931 46.7443C54.1994 47.3918 54.3375 48.0858 54.3375 48.7867C54.3375 49.4876 54.1994 50.1816 53.931 50.829C53.6626 51.4765 53.2692 52.0647 52.7734 52.56C52.278 53.0559 51.6898 53.4493 51.0424 53.7177C50.3949 53.986 49.7009 54.1242 49 54.1242C48.2991 54.1242 47.6051 53.986 46.9577 53.7177C46.3102 53.4493 45.722 53.0559 45.2267 52.56L45.0667 52.4C44.4382 51.7852 43.64 51.3728 42.7749 51.216C41.9099 51.0591 41.0177 51.165 40.2134 51.52C39.4246 51.858 38.752 52.4193 38.2782 53.1348C37.8044 53.8502 37.5501 54.6886 37.5467 55.5467V56C37.5467 57.4145 36.9848 58.771 35.9846 59.7712C34.9844 60.7714 33.6278 61.3333 32.2134 61.3333C30.7989 61.3333 29.4423 60.7714 28.4421 59.7712C27.4419 58.771 26.88 57.4145 26.88 56V55.76C26.8594 54.8773 26.5737 54.0213 26.06 53.3032C25.5464 52.5851 24.8286 52.0381 24 51.7333C23.1957 51.3784 22.3035 51.2725 21.4385 51.4293C20.5734 51.5862 19.7752 51.9986 19.1467 52.6133L18.9867 52.7733C18.4914 53.2692 17.9032 53.6626 17.2557 53.931C16.6082 54.1994 15.9142 54.3375 15.2134 54.3375C14.5125 54.3375 13.8185 54.1994 13.171 53.931C12.5235 53.6626 11.9353 53.2692 11.44 52.7733C10.9441 52.278 10.5508 51.6898 10.2824 51.0424C10.014 50.3949 9.87582 49.7009 9.87582 49C9.87582 48.2991 10.014 47.6051 10.2824 46.9577C10.5508 46.3102 10.9441 45.722 11.44 45.2267L11.6 45.0667C12.2148 44.4382 12.6272 43.64 12.784 42.7749C12.9409 41.9099 12.835 41.0176 12.48 40.2133C12.142 39.4246 11.5807 38.752 10.8653 38.2782C10.1498 37.8044 9.31145 37.5501 8.45335 37.5467H8.00002C6.58553 37.5467 5.22898 36.9848 4.22878 35.9846C3.22859 34.9844 2.66669 33.6278 2.66669 32.2133C2.66669 30.7988 3.22859 29.4423 4.22878 28.4421C5.22898 27.4419 6.58553 26.88 8.00002 26.88H8.24002C9.12267 26.8594 9.9787 26.5737 10.6968 26.06C11.4149 25.5464 11.9619 24.8286 12.2667 24C12.6217 23.1957 12.7275 22.3035 12.5707 21.4384C12.4138 20.5734 12.0015 19.7751 11.3867 19.1467L11.2267 18.9867C10.7308 18.4913 10.3374 17.9031 10.069 17.2557C9.80064 16.6082 9.66249 15.9142 9.66249 15.2133C9.66249 14.5125 9.80064 13.8184 10.069 13.171C10.3374 12.5235 10.7308 11.9353 11.2267 11.44C11.722 10.9441 12.3102 10.5507 12.9577 10.2824C13.6051 10.014 14.2991 9.87581 15 9.87581C15.7009 9.87581 16.3949 10.014 17.0424 10.2824C17.6898 10.5507 18.278 10.9441 18.7734 11.44L18.9334 11.6C19.5618 12.2148 20.3601 12.6272 21.2251 12.784C22.0902 12.9409 22.9824 12.835 23.7867 12.48H24C24.7887 12.142 25.4614 11.5807 25.9352 10.8652C26.409 10.1498 26.6633 9.31144 26.6667 8.45334V8C26.6667 6.58552 27.2286 5.22896 28.2288 4.22877C29.229 3.22857 30.5855 2.66667 32 2.66667C33.4145 2.66667 34.7711 3.22857 35.7713 4.22877C36.7714 5.22896 37.3334 6.58552 37.3334 8V8.24C37.3368 9.0981 37.591 9.93647 38.0648 10.6519C38.5386 11.3674 39.2113 11.9286 40 12.2667C40.8043 12.6216 41.6965 12.7275 42.5616 12.5707C43.4266 12.4138 44.2249 12.0014 44.8534 11.3867L45.0133 11.2267C45.5087 10.7308 46.0969 10.3374 46.7443 10.069C47.3918 9.80062 48.0858 9.66248 48.7867 9.66248C49.4876 9.66248 50.1816 9.80062 50.829 10.069C51.4765 10.3374 52.0647 10.7308 52.56 11.2267C53.0559 11.722 53.4493 12.3102 53.7177 12.9577C53.9861 13.6051 54.1242 14.2991 54.1242 15C54.1242 15.7009 53.9861 16.3949 53.7177 17.0424C53.4493 17.6898 53.0559 18.278 52.56 18.7733L52.4 18.9333C51.7853 19.5618 51.3729 20.36 51.216 21.2251C51.0592 22.0902 51.165 22.9824 51.52 23.7867V24C51.8581 24.7887 52.4193 25.4614 53.1348 25.9352C53.8502 26.409 54.6886 26.6632 55.5467 26.6667H56C57.4145 26.6667 58.7711 27.2286 59.7713 28.2288C60.7714 29.229 61.3334 30.5855 61.3334 32C61.3334 33.4145 60.7714 34.771 59.7713 35.7712C58.7711 36.7714 57.4145 37.3333 56 37.3333H55.76C54.9019 37.3368 54.0636 37.591 53.3481 38.0648C52.6327 38.5386 52.0714 39.2113 51.7333 40V40Z" stroke="black" stroke-width="2" stroke-linecap="round" stroke-linejoin="round"/>
</svg>
